<svg width="46" height="58" viewBox="0 0 46 58" fill="none" xmlns="http://www.w3.org/2000/svg">
<path d="M32.3182 22H28.0909C27.8409 20.7841 27.4034 19.7159 26.7784 18.7955C26.1648 17.875 25.4148 17.1023 24.5284 16.4773C23.6534 15.8409 22.6818 15.3636 21.6136 15.0455C20.5455 14.7273 19.4318 14.5682 18.2727 14.5682C16.1591 14.5682 14.2443 15.1023 12.5284 16.1705C10.8239 17.2386 9.46591 18.8125 8.45455 20.892C7.45455 22.9716 6.95455 25.5227 6.95455 28.5455C6.95455 31.5682 7.45455 34.1193 8.45455 36.1989C9.46591 38.2784 10.8239 39.8523 12.5284 40.9205C14.2443 41.9886 16.1591 42.5227 18.2727 42.5227C19.4318 42.5227 20.5455 42.3636 21.6136 42.0455C22.6818 41.7273 23.6534 41.2557 24.5284 40.6307C25.4148 39.9943 26.1648 39.2159 26.7784 38.2955C27.4034 37.3636 27.8409 36.2955 28.0909 35.0909H32.3182C32 36.875 31.4205 38.4716 30.5795 39.8807C29.7386 41.2898 28.6932 42.4886 27.4432 43.4773C26.1932 44.4545 24.7898 45.1989 23.233 45.7102C21.6875 46.2216 20.0341 46.4773 18.2727 46.4773C15.2955 46.4773 12.6477 45.75 10.3295 44.2955C8.01136 42.8409 6.1875 40.7727 4.85795 38.0909C3.52841 35.4091 2.86364 32.2273 2.86364 28.5455C2.86364 24.8636 3.52841 21.6818 4.85795 19C6.1875 16.3182 8.01136 14.25 10.3295 12.7955C12.6477 11.3409 15.2955 10.6136 18.2727 10.6136C20.0341 10.6136 21.6875 10.8693 23.233 11.3807C24.7898 11.892 26.1932 12.642 27.4432 13.6307C28.6932 14.608 29.7386 15.8011 30.5795 17.2102C31.4205 18.608 32 20.2045 32.3182 22Z" fill="#FFA500"/>
<path d="M43.3182 22H39.0909C38.8409 20.7841 38.4034 19.7159 37.7784 18.7955C37.1648 17.875 36.4148 17.1023 35.5284 16.4773C34.6534 15.8409 33.6818 15.3636 32.6136 15.0455C31.5455 14.7273 30.4318 14.5682 29.2727 14.5682C27.1591 14.5682 25.2443 15.1023 23.5284 16.1705C21.8239 17.2386 20.4659 18.8125 19.4545 20.892C18.4545 22.9716 17.9545 25.5227 17.9545 28.5455C17.9545 31.5682 18.4545 34.1193 19.4545 36.1989C20.4659 38.2784 21.8239 39.8523 23.5284 40.9205C25.2443 41.9886 27.1591 42.5227 29.2727 42.5227C30.4318 42.5227 31.5455 42.3636 32.6136 42.0455C33.6818 41.7273 34.6534 41.2557 35.5284 40.6307C36.4148 39.9943 37.1648 39.2159 37.7784 38.2955C38.4034 37.3636 38.8409 36.2955 39.0909 35.0909H43.3182C43 36.875 42.4205 38.4716 41.5795 39.8807C40.7386 41.2898 39.6932 42.4886 38.4432 43.4773C37.1932 44.4545 35.7898 45.1989 34.233 45.7102C32.6875 46.2216 31.0341 46.4773 29.2727 46.4773C26.2955 46.4773 23.6477 45.75 21.3295 44.2955C19.0114 42.8409 17.1875 40.7727 15.858 38.0909C14.5284 35.4091 13.8636 32.2273 13.8636 28.5455C13.8636 24.8636 14.5284 21.6818 15.858 19C17.1875 16.3182 19.0114 14.25 21.3295 12.7955C23.6477 11.3409 26.2955 10.6136 29.2727 10.6136C31.0341 10.6136 32.6875 10.8693 34.233 11.3807C35.7898 11.892 37.1932 12.642 38.4432 13.6307C39.6932 14.608 40.7386 15.8011 41.5795 17.2102C42.4205 18.608 43 20.2045 43.3182 22Z" fill="#AF90FF"/>
</svg>
