<svg width="48" height="48" viewBox="0 0 48 48" fill="none" xmlns="http://www.w3.org/2000/svg">
<mask id="mask0_25_127" style="mask-type:luminance" maskUnits="userSpaceOnUse" x="6" y="0" width="36" height="48">
<path d="M6.0708 0.0749435H41.8213V47.9893H6.0708V0.0749435Z" fill="white"/>
</mask>
<g mask="url(#mask0_25_127)">
<path d="M7.57875 11.4593C7.71704 14.3971 14.9936 16.7258 23.9405 16.6747C31.7543 16.6301 38.2725 14.7847 39.8692 12.3603C39.5054 11.9559 39.0029 11.6786 38.4369 11.6035C38.4429 11.5321 38.4469 11.4602 38.4465 11.3872C38.4399 10.2254 37.5877 9.26864 36.4773 9.0902C36.5065 8.93995 36.5219 8.78453 36.521 8.62555C36.5137 7.33169 35.4587 6.28889 34.1649 6.29621C34.1356 6.29639 34.1071 6.29995 34.078 6.3012C34.1608 6.05924 34.2072 5.80068 34.2057 5.53071C34.1982 4.23685 33.1435 3.19405 31.8496 3.20137C31.5527 3.20315 31.2702 3.26221 31.0094 3.36446C30.6393 2.66784 29.9287 2.1823 29.1002 2.12627C28.9559 0.96446 27.9634 0.0681626 26.7638 0.074905C26.0088 0.0792258 25.3411 0.441813 24.9159 0.99872C24.4846 0.529427 23.8665 0.235003 23.1789 0.238928C21.8851 0.246244 20.8423 1.30117 20.8496 2.59485C20.851 2.84199 20.8912 3.07949 20.9633 3.30272C20.4353 3.40068 19.971 3.67512 19.6316 4.06287C19.3621 3.05933 18.4458 2.32184 17.3579 2.32791C16.3415 2.3338 15.4825 2.98724 15.1635 3.89389C14.3 4.24309 13.6922 5.09014 13.698 6.07816C13.6992 6.29763 13.7327 6.50891 13.7904 6.71019C13.4992 6.58278 13.1782 6.5114 12.8398 6.51337C11.8197 6.51926 10.958 7.17734 10.6417 8.08934C10.3383 7.94837 10.0011 7.86825 9.64436 7.87039C8.3505 7.87771 7.30753 8.93246 7.31498 10.2263C7.31734 10.653 7.43565 11.0512 7.63692 11.3946C7.6164 11.4153 7.59838 11.4379 7.57875 11.4593Z" fill="#F9D320"/>
</g>
<mask id="mask1_25_127" style="mask-type:luminance" maskUnits="userSpaceOnUse" x="6" y="0" width="36" height="48">
<path d="M6.0708 0.0749435H41.8213V47.9893H6.0708V0.0749435Z" fill="white"/>
</mask>
<g mask="url(#mask1_25_127)">
<path d="M36.6443 40.8946C35.9566 41.939 34.6202 43.0205 33.2216 43.7416L35.6125 19.4912C37.1337 19.0025 38.6182 18.3549 39.7116 17.4263L36.6443 40.8946ZM30.8423 44.7531C28.5271 45.5193 27.1809 45.7568 25.2538 45.946L25.5541 21.026C27.6831 20.9649 30.4382 20.6764 32.7857 20.1753L30.8423 44.7531ZM17.039 44.7531L15.0958 20.1753C17.4432 20.6764 20.1983 20.9649 22.3272 21.026L22.6275 45.946C20.7004 45.7568 19.3544 45.5193 17.039 44.7531ZM11.2373 40.8946L8.16974 17.4263C9.26321 18.3549 10.7476 19.0025 12.2688 19.4912L14.6597 43.7416C13.2611 43.0205 11.9248 41.939 11.2373 40.8946ZM36.4728 8.1666C36.5031 8.31471 36.5201 8.46781 36.521 8.62501C36.5219 8.784 36.5065 8.93942 36.4771 9.08967C37.5877 9.26793 38.4399 10.2247 38.4465 11.3867C38.4469 11.4595 38.4429 11.5316 38.4369 11.6028C39.0029 11.6779 39.5053 11.9552 39.8692 12.3596C38.2727 14.7842 31.7543 16.6296 23.9407 16.6744C14.9938 16.7256 7.71722 14.3971 7.57875 11.4592C7.59838 11.4379 7.6164 11.4151 7.63692 11.3946C7.49881 11.159 7.40352 10.8965 7.35427 10.618C6.49759 11.4311 5.97922 12.0867 6.0704 13.0414C6.07915 13.169 9.86044 40.2426 9.86044 40.2426C10.2967 44.5304 16.5233 47.9575 23.9407 48C31.358 47.9575 37.5848 44.5304 38.0209 40.2426C38.0209 40.2426 41.8022 13.169 41.811 13.0414C41.9921 11.1319 39.7578 9.39854 36.4728 8.1666Z" fill="#DB382A"/>
</g>
<path d="M15.0959 20.1753L17.0391 44.7531C19.3546 45.5193 20.7005 45.7568 22.6277 45.946L22.3274 21.026C20.1984 20.9649 17.4433 20.6764 15.0959 20.1753Z" fill="#FFFFFE"/>
<path d="M25.2539 45.946C27.181 45.7568 28.527 45.5193 30.8424 44.7531L32.7856 20.1753C30.4383 20.6764 27.6832 20.9649 25.5542 21.026L25.2539 45.946Z" fill="#FFFFFE"/>
<path d="M33.2217 43.7416C34.6203 43.0205 35.9566 41.939 36.6441 40.8946L39.7117 17.4263C38.6182 18.3549 37.1338 19.0025 35.6126 19.4912L33.2217 43.7416Z" fill="#FFFFFE"/>
<path d="M8.16968 17.4263L11.237 40.8946C11.9247 41.939 13.2611 43.0205 14.6597 43.7416L12.2688 19.4912C10.7476 19.0025 9.26315 18.3549 8.16968 17.4263Z" fill="#FFFFFE"/>
</svg>
