<svg width="49" height="48" viewBox="0 0 49 48" fill="none" xmlns="http://www.w3.org/2000/svg">
<g clip-path="url(#clip0_25_146)">
<mask id="mask0_25_146" style="mask-type:luminance" maskUnits="userSpaceOnUse" x="1" y="9" width="47" height="39">
<path d="M1.75049 9.85378H48.0001V47.9343H1.75049V9.85378Z" fill="white"/>
</mask>
<g mask="url(#mask0_25_146)">
<path d="M47.9587 25.9312C47.4958 18.5101 43.7217 12.9578 38.043 9.85378C38.0753 10.0346 37.9143 10.2607 37.7311 10.1806C34.0168 8.55579 27.7156 13.8143 23.3124 11.0606C23.3454 12.0488 23.1524 16.8697 16.3613 17.1494C16.201 17.156 16.1128 16.9922 16.2142 16.8763C17.1224 15.8404 18.0394 13.2178 16.7208 11.8196C13.8972 14.3498 12.2574 15.3021 6.8434 14.0455C3.37705 17.67 1.41283 22.6307 1.79842 28.8104C2.58514 41.4254 14.4013 48.6364 26.3003 47.8939C38.1986 47.152 48.7456 38.5462 47.9587 25.9312Z" fill="#FA320A"/>
</g>
<path d="M26.2736 6.82254C28.7186 6.23976 35.7513 6.76577 38.0045 9.75472C38.1397 9.93397 37.9493 10.2732 37.7312 10.178C34.0169 8.55312 27.7157 13.8116 23.3125 11.0579C23.3456 12.0462 23.1526 16.8671 16.3615 17.1467C16.2011 17.1533 16.1129 16.9896 16.2143 16.8737C17.1225 15.8378 18.0393 13.2151 16.721 11.8169C13.6452 14.5732 11.9777 15.4589 5.30193 13.6545C5.08344 13.5955 5.15793 13.2444 5.39037 13.1557C6.65211 12.6736 9.5106 10.5616 12.2149 9.63063C12.7298 9.45357 13.243 9.31614 13.744 9.23628C10.7664 8.97019 9.42416 8.55611 7.53025 8.84172C7.32271 8.87299 7.1817 8.6314 7.31037 8.46569C9.86213 5.17878 14.5629 4.18612 17.4633 5.93224C15.6755 3.71707 14.2751 1.95044 14.2751 1.95044L17.5933 0.0656891C17.5933 0.0656891 18.9642 3.12853 19.9617 5.35764C22.43 1.71063 27.0224 1.37404 28.9627 3.96166C29.0779 4.11541 28.9576 4.3341 28.7654 4.32952C27.1862 4.29108 26.3166 5.7275 26.2506 6.81995L26.2736 6.82254Z" fill="#00912D"/>
</g>
<defs>
<clipPath id="clip0_25_146">
<rect width="48.2496" height="47.8686" fill="white" transform="translate(0.750488 0.0656891)"/>
</clipPath>
</defs>
</svg>
